<!-- Generator: Adobe Illustrator 23.0.1, SVG Export Plug-In  -->
<svg version="1.1" xmlns="http://www.w3.org/2000/svg" xmlns:xlink="http://www.w3.org/1999/xlink" x="0px" y="0px"
	 width="108.46px" height="104.29px" viewBox="0 0 108.46 104.29" style="enable-background:new 0 0 108.46 104.29;"
	 xml:space="preserve">
<style type="text/css">
	.st0{fill:#e3e4e2;}
</style>
<defs>
</defs>
<g>
	<path class="st0" d="M106.63,72.74c-1.21-1.21-2.69-1.82-4.43-1.82H74.37c-0.91,2.43-2.44,4.43-4.59,6
		c-2.15,1.57-4.55,2.35-7.2,2.35H45.89c-2.65,0-5.06-0.78-7.2-2.35c-2.15-1.56-3.68-3.56-4.59-6H6.26c-1.74,0-3.21,0.61-4.43,1.82
		C0.61,73.96,0,75.43,0,77.17v20.86c0,1.74,0.61,3.22,1.82,4.43c1.22,1.21,2.7,1.82,4.43,1.82h95.94c1.74,0,3.22-0.61,4.43-1.82
		c1.21-1.22,1.82-2.7,1.82-4.43V77.17C108.46,75.43,107.85,73.96,106.63,72.74L106.63,72.74z M82.19,94.7
		c-0.83,0.83-1.8,1.24-2.93,1.24c-1.13,0-2.11-0.41-2.93-1.24c-0.82-0.82-1.24-1.8-1.24-2.93c0-1.13,0.41-2.11,1.24-2.93
		c0.82-0.83,1.8-1.24,2.93-1.24c1.13,0,2.1,0.41,2.93,1.24c0.82,0.82,1.24,1.8,1.24,2.93C83.43,92.9,83.02,93.88,82.19,94.7
		L82.19,94.7z M98.87,94.7c-0.82,0.83-1.8,1.24-2.93,1.24c-1.13,0-2.11-0.41-2.93-1.24c-0.82-0.82-1.24-1.8-1.24-2.93
		c0-1.13,0.41-2.11,1.24-2.93c0.83-0.83,1.8-1.24,2.93-1.24c1.13,0,2.11,0.41,2.93,1.24c0.82,0.82,1.24,1.8,1.24,2.93
		C100.11,92.9,99.7,93.88,98.87,94.7L98.87,94.7z M98.87,94.7"/>
	<path class="st0" d="M25.03,37.54h16.69v29.2c0,1.13,0.41,2.11,1.24,2.93c0.82,0.82,1.8,1.24,2.93,1.24h16.68
		c1.13,0,2.11-0.41,2.93-1.24c0.82-0.82,1.24-1.8,1.24-2.93v-29.2h16.69c1.82,0,3.1-0.87,3.84-2.61c0.74-1.7,0.43-3.2-0.91-4.5
		l-29.2-29.2C56.38,0.41,55.4,0,54.23,0c-1.17,0-2.15,0.41-2.93,1.24l-29.2,29.2c-1.35,1.3-1.65,2.8-0.91,4.5
		C21.92,36.68,23.2,37.54,25.03,37.54L25.03,37.54z M25.03,37.54"/>
</g>
</svg>
