<!-- Generator: Adobe Illustrator 18.1.1, SVG Export Plug-In  -->
<svg version="1.1"
	 xmlns="http://www.w3.org/2000/svg" xmlns:xlink="http://www.w3.org/1999/xlink" xmlns:a="http://ns.adobe.com/AdobeSVGViewerExtensions/3.0/"
	 x="0px" y="0px" width="117.9px" height="35px" viewBox="0 0 117.9 35" enable-background="new 0 0 117.9 35" xml:space="preserve"
	>
<defs>
</defs>
<g>
	<path fill="#FFFFFF" d="M9.7,27L9.7,27C9.7,27,9.6,27,9.7,27C9.6,27,9.7,27,9.7,27z"/>
	<path fill="#FFFFFF" d="M111.7,8.7c-3.4,0-6.2,2.8-6.2,6.2c0,3.4,2.8,6.2,6.2,6.2s6.2-2.8,6.2-6.2C117.9,11.5,115.1,8.7,111.7,8.7z
		 M114.5,17.5h-1.7l-1.3-4h-2v2.2c0,0.5,0.6-0.2,1.2-0.2c0.6,0,1.8,0,1.8,0v2c0,0-1.2,0-2.3,0s-1.7-0.2-1.7-1.2v-2.8h-1v-2h1l0,0h1
		l0,0h2.9l1.2,4.2l1.1-3.2h1.3L114.5,17.5z"/>
	<path fill="#FFFFFF" d="M49.4,12.5H33.6c-0.1,0-0.2,1.2-0.2,1.5c0,0.4-0.1,0.9-0.1,1.3c0,0.4,0,0.6,0.1,1c0,0.4,0.1,0.2,0.2,1.2
		h4.9v13.1c1,0.1,1.2,0.2,1.7,0.2c0.5,0,1,0.1,1.3,0.1c0.4,0,0.4,0,0.9-0.1c0.5,0,1.2-0.1,1.2-0.2V17.5h6c0.1-1,0.2-0.7,0.2-1.1
		c0-0.4,0.1-0.7,0.1-1c0-0.4,0-1-0.1-1.4C49.6,13.6,49.5,12.5,49.4,12.5z"/>
	<path fill="#FFFFFF" d="M65.6,15.2c-0.7-0.8-1.7-1.4-2.7-1.9c-1.1-0.4-2.4-0.7-3.8-0.7c-1.4,0-2.7,0.2-3.8,0.7
		c-1.1,0.4-2,1.1-2.7,1.9c-0.7,0.8-1.3,1.8-1.7,2.9c-0.4,1.1-0.6,2.4-0.6,3.8c0,1.4,0.2,2.6,0.6,3.7c0.4,1.1,0.9,2.1,1.7,2.9
		c0.7,0.8,1.7,1.4,2.7,1.9c1.1,0.4,2.3,0.6,3.8,0.6c1.5,0,2.7-0.2,3.8-0.6c1.1-0.4,2-1,2.7-1.9c0.7-0.8,1.3-1.8,1.7-2.9
		c0.4-1.1,0.6-2.4,0.6-3.7c0-1.4-0.2-2.6-0.6-3.8C66.9,17,66.3,16,65.6,15.2z M61.3,25.2C60.8,26,60,26.4,59,26.4
		c-1,0-1.7-0.4-2.2-1.2c-0.5-0.8-0.7-1.9-0.7-3.3c0-1.5,0.2-2.6,0.7-3.3c0.5-0.8,1.2-1.2,2.2-1.2c1,0,1.7,0.4,2.2,1.2
		c0.5,0.8,0.7,1.9,0.7,3.3C62,23.4,61.8,24.5,61.3,25.2z"/>
	<path fill="#FFFFFF" d="M82.4,14c-0.8-0.5-1.7-0.9-2.7-1.1c-1-0.2-2-0.3-3.1-0.3c-1,0-2,0-3.1,0.1c-1.1,0.1-2.1,0.2-3.1,0.4v17.5
		c1,0.1,1,0.2,1.5,0.2c0.4,0,0.8,0.1,1.2,0.1c0.4,0,0.5,0,1-0.1c0.5,0,1.3-0.1,1.3-0.2v-4.2c0,0,0.5,0,0.7,0.1c0.3,0,0.7,0,1.1,0
		c1,0,1.9-0.1,2.9-0.4c0.9-0.2,1.8-0.6,2.5-1.2c0.7-0.5,1.3-1.3,1.8-2.1c0.4-0.9,0.7-2,0.7-3.3c0-1.4-0.2-2.6-0.7-3.5
		C83.8,15.2,83.2,14.5,82.4,14z M78.7,21.6c-0.5,0.4-1.2,0.6-2,0.6c-0.1,0-0.5,0-0.6,0s-0.6,0-0.6-0.1v-5.1c0,0,0.8-0.6,1-0.6
		c0.2,0,0.3,0,0.4,0c0.7,0,1.4,0.5,1.9,0.9c0.5,0.4,0.8,1.2,0.8,2C79.4,20.4,79.2,21.2,78.7,21.6z"/>
	<path fill="#FFFFFF" d="M101.8,15.2c-0.7-0.8-1.7-1.4-2.7-1.9c-1.1-0.4-2.4-0.7-3.8-0.7c-1.4,0-2.7,0.2-3.8,0.7
		c-1.1,0.4-2,1.1-2.7,1.9C88,16,87.5,17,87.1,18.1c-0.4,1.1-0.6,2.4-0.6,3.8c0,1.4,0.2,2.6,0.6,3.7c0.4,1.1,0.9,2.1,1.7,2.9
		c0.7,0.8,1.7,1.4,2.7,1.9c1.1,0.4,2.3,0.6,3.8,0.6c1.5,0,2.7-0.2,3.8-0.6c1.1-0.4,2-1,2.7-1.9c0.7-0.8,1.3-1.8,1.7-2.9
		c0.4-1.1,0.6-2.4,0.6-3.7c0-1.4-0.2-2.6-0.6-3.8C103.1,17,102.6,16,101.8,15.2z M97.5,25.2c-0.5,0.8-1.2,1.2-2.2,1.2
		c-1,0-1.7-0.4-2.2-1.2c-0.5-0.8-0.7-1.9-0.7-3.3c0-1.5,0.2-2.6,0.7-3.3c0.5-0.8,1.2-1.2,2.2-1.2c1,0,1.7,0.4,2.2,1.2
		c0.5,0.8,0.7,1.9,0.7,3.3C98.3,23.4,98,24.5,97.5,25.2z"/>
	<path fill="#FFFFFF" d="M26.8,1.6C26.8,1.6,26.7,1.5,26.8,1.6l-0.1,0C26.7,1.6,26.7,1.6,26.8,1.6z"/>
	<path fill="#FFFFFF" d="M26.8,1.6c0,0-0.1,0-0.1,0L26.8,1.6c-2.5-1.7-6-2.1-9.6-0.8L2.9,6C0.7,6.8-0.4,10,0.1,13.2l1.4,9.2l0,0
		c0,0,0,0.1,0,0.1l0,0.3c0.3,2.2,1.9,4.6,3.7,5.6l9.8,5.4c4.2,2.3,9.1,1.9,10-1.9l4.9-20.2C31,7,29.6,3.5,26.8,1.6z M9.7,27
		C9.7,27,9.6,27,9.7,27C9.6,27,9.7,27,9.7,27L9.7,27z M22.2,9.6c-0.4,2.9-1,3.8-1,3.8l-5.5,0.2l-0.9,15.2c0,0-0.8,0-2.6-0.6
		c-1.5-0.5-2.1-1.2-2.1-1.2L9.8,13.7l-3.1,0c0,0-0.5-0.8-0.5-2.4C6.1,9.8,6.4,8.9,6.4,8.9l15.8-3.3C22.2,5.6,22.6,6.7,22.2,9.6z"/>
</g>
</svg>
