<!-- Generator: Adobe Illustrator 21.1.0, SVG Export Plug-In  -->
<svg version="1.1"
	 xmlns="http://www.w3.org/2000/svg" xmlns:xlink="http://www.w3.org/1999/xlink" xmlns:a="http://ns.adobe.com/AdobeSVGViewerExtensions/3.0/"
	 x="0px" y="0px" width="30px" height="22.5px" viewBox="0 0 30 22.5" style="enable-background:new 0 0 30 22.5;"
	 xml:space="preserve">
<style type="text/css">
	.st0{fill:#FFFFFF;}
</style>
<defs>
</defs>
<g>
	<path class="st0" d="M26.2,0H3.7C1.7,0,0,1.7,0,3.7v15c0,2.1,1.7,3.7,3.7,3.7h22.5c2.1,0,3.8-1.7,3.8-3.7v-15C30,1.7,28.3,0,26.2,0
		L26.2,0z M20.1,10L28,3.2c0.1,0.2,0.1,0.4,0.1,0.5v15c0,0.1,0,0.2-0.1,0.4L20.1,10z M26.2,1.9c0.1,0,0.2,0,0.4,0.1L15,11.9L3.4,1.9
		c0.1,0,0.2-0.1,0.4-0.1H26.2z M1.9,19.1c0-0.1-0.1-0.2-0.1-0.4v-15c0-0.2,0.1-0.4,0.1-0.5L9.9,10L1.9,19.1z M3.7,20.6
		c-0.2,0-0.4-0.1-0.5-0.1l8.1-9.3l3,2.6c0.2,0.2,0.4,0.2,0.6,0.2c0.2,0,0.4-0.1,0.6-0.2l3-2.6l8.1,9.3c-0.2,0.1-0.3,0.1-0.5,0.1H3.7
		z M3.7,20.6"/>
</g>
</svg>
