<!-- Generator: Adobe Illustrator 23.0.1, SVG Export Plug-In  -->
<svg version="1.1" xmlns="http://www.w3.org/2000/svg" xmlns:xlink="http://www.w3.org/1999/xlink" x="0px" y="0px" width="37.55px"
	 height="37.6px" viewBox="0 0 37.55 37.6" style="enable-background:new 0 0 37.55 37.6;" xml:space="preserve">
<defs>
</defs>
<g>
	<path d="M20.93,6.69H8.12c-0.95,0-1.71,0.77-1.71,1.71c0,0.95,0.76,1.71,1.71,1.71h12.82c0.95,0,1.71-0.76,1.71-1.71
		C22.64,7.46,21.88,6.69,20.93,6.69L20.93,6.69z M20.93,6.69"/>
	<path d="M22.64,14.81c0-0.95-0.77-1.71-1.71-1.71H8.12c-0.95,0-1.71,0.77-1.71,1.71c0,0.95,0.76,1.71,1.71,1.71h12.82
		C21.88,16.52,22.64,15.76,22.64,14.81L22.64,14.81z M22.64,14.81"/>
	<path d="M14.53,22.93c0.94,0,1.71-0.77,1.71-1.71c0-0.95-0.76-1.71-1.71-1.71H8.12c-0.95,0-1.71,0.76-1.71,1.71
		c0,0.94,0.76,1.71,1.71,1.71H14.53z M14.53,22.93"/>
	<path d="M27.43,28.74l-1.79,1.18v4.25H3.42V3.42h22.22v6.75l3.42-5.92V1.71c0-0.94-0.77-1.71-1.71-1.71H1.71C0.77,0,0,0.77,0,1.71
		v34.18c0,0.95,0.77,1.71,1.71,1.71h25.64c0.94,0,1.71-0.77,1.71-1.71v-9.42l-0.82,1.41C28.04,28.23,27.76,28.53,27.43,28.74
		L27.43,28.74z M27.43,28.74"/>
	<path d="M37.54,7.91c-0.04-0.15-0.4-1.54-2.57-2.79c-2.18-1.25-3.55-0.88-3.7-0.83c-0.2,0.07-0.38,0.2-0.48,0.39L20.1,23.18
		c-0.07,0.12-0.11,0.25-0.11,0.38l-0.4,6.67c-0.02,0.32,0.15,0.63,0.43,0.79c0.28,0.16,0.63,0.15,0.9-0.03l5.58-3.68
		c0.11-0.07,0.2-0.17,0.27-0.29l10.68-18.5C37.55,8.34,37.58,8.12,37.54,7.91L37.54,7.91z M23.06,28.04
		c-0.28-0.23-0.61-0.45-0.95-0.64c-0.35-0.2-0.69-0.37-1.04-0.5l0.12-2c0.44,0.06,1.11,0.24,1.94,0.72c0.84,0.48,1.32,0.97,1.6,1.32
		L23.06,28.04z M23.06,28.04"/>
	<path d="M11.92,30.83c0.05,0.34,0.45,0.45,0.72,0.56c0.25,0.11,0.56-0.1,0.77-0.2c1.3-0.63,3.07,0.11,4.46,0.11
		c0.83,0,0.83-1.28,0-1.28c-1.63,0-2.98-0.41-4.6-0.15c0-0.09-0.04-0.22-0.13-0.39c-0.3-0.51-0.69-0.66-1.07-0.6
		c-0.03-0.06-0.05-0.12-0.09-0.18c-0.1-0.16-0.24-0.25-0.4-0.28c0.45-0.78,0.74-1.62,0.45-2.29c-0.09-0.21-0.35-0.31-0.55-0.32
		c-0.86-0.04-1.59,0.86-2.14,1.4c-1.38,1.35-2.59,2.88-3.76,4.41c-0.5,0.66,0.61,1.29,1.1,0.65c1.04-1.35,2.14-2.66,3.33-3.89
		c-0.28,0.47-0.59,0.93-0.91,1.37c-0.46,0.71,0.63,1.3,1.11,0.65c0.11-0.17,0.25-0.3,0.41-0.4c-0.03,0.08-0.06,0.16-0.09,0.24h0
		c-0.02,0.05-0.05,0.1-0.07,0.15c-0.29,0.71,0.79,1.05,1.18,0.49c0.1-0.14,0.19-0.29,0.27-0.44C11.9,30.54,11.89,30.68,11.92,30.83
		L11.92,30.83z M11.92,30.83"/>
</g>
</svg>
