<!-- Generator: Adobe Illustrator 21.1.0, SVG Export Plug-In  -->
<svg version="1.1"
	 xmlns="http://www.w3.org/2000/svg" xmlns:xlink="http://www.w3.org/1999/xlink" xmlns:a="http://ns.adobe.com/AdobeSVGViewerExtensions/3.0/"
	 x="0px" y="0px" width="15px" height="15px" viewBox="0 0 15 15" style="enable-background:new 0 0 15 15;" xml:space="preserve">
<style type="text/css">
	.st0{fill:#F6F6F6;}
</style>
<defs>
</defs>
<path class="st0" d="M12.6,12.7c-0.3,0-0.6-0.3-0.6-0.6c0-0.3,0.3-0.6,0.6-0.6c0.3,0,0.6,0.3,0.6,0.6C13.2,12.4,13,12.7,12.6,12.7z
	 M14.6,10.1c-0.3-0.6-0.8-0.9-1.4-0.9h-1.8c0,0,0,0,0,0c-0.7,0-1.2,0.4-1.5,1c0,0.1-0.1,0.2-0.1,0.3H5.9c-0.2,0-0.3,0.1-0.4,0.2
	l-1,1c-0.2,0.2-0.2,0.6,0,0.8l1,1c0.1,0.1,0.3,0.2,0.4,0.2h1.9c0.3,0,0.6-0.3,0.6-0.6c0-0.3-0.3-0.6-0.6-0.6H6.1l-0.5-0.5l0.4-0.4h4
	c0.3,0,0.5-0.2,0.6-0.4c0-0.2,0.1-0.4,0.2-0.6c0.1-0.1,0.2-0.2,0.4-0.2c0,0,0,0,0,0h1.8c0.2,0,0.3,0.1,0.4,0.2
	c0.2,0.4,0.3,0.9,0.3,1.5c0,0.6-0.2,1.2-0.3,1.5c-0.1,0.1-0.2,0.2-0.4,0.2c0,0,0,0,0,0h-1.8c-0.2,0-0.3-0.1-0.4-0.3
	c-0.1-0.2-0.1-0.4-0.2-0.6c-0.1-0.3-0.4-0.5-0.7-0.4c-0.3,0.1-0.5,0.4-0.4,0.7c0.1,0.3,0.1,0.5,0.2,0.8c0.2,0.6,0.8,1,1.5,1h1.8
	c0,0,0,0,0,0c0.6,0,1.2-0.4,1.4-0.9c0.2-0.5,0.4-1.2,0.4-2C15,11.3,14.8,10.6,14.6,10.1z M4.4,14.4c0,0.3-0.3,0.6-0.6,0.6H1.8
	c-0.5,0-1-0.2-1.4-0.7c-0.3-0.4-0.5-1-0.4-1.5c0.4-1.7,1.3-3.2,2.6-4.3c0.7-0.6,1.6-1.1,2.5-1.3C4.1,6.4,3.5,5.3,3.5,4
	c0-2.2,1.8-4,4-4s4,1.8,4,4c0,1.3-0.6,2.5-1.6,3.2c0.1,0,0.2,0.1,0.3,0.1c0.3,0.1,0.5,0.5,0.3,0.8c-0.1,0.3-0.5,0.5-0.8,0.3
	C9.1,8.1,8.4,8,7.7,8C7.6,8,7.6,8,7.5,8C7.4,8,7.4,8,7.4,8c-3,0.1-5.6,2.2-6.2,5.1c0,0.2,0,0.4,0.1,0.5c0.1,0.1,0.2,0.2,0.5,0.2h2.1
	C4.2,13.8,4.4,14.1,4.4,14.4z M7.4,6.8c0,0,0.1,0,0.1,0c0,0,0.1,0,0.1,0c1.5-0.1,2.7-1.3,2.7-2.8c0-1.6-1.3-2.8-2.8-2.8
	S4.7,2.4,4.7,4C4.7,5.5,5.9,6.7,7.4,6.8z"/>
</svg>
